<svg xmlns="http://www.w3.org/2000/svg" viewBox="0 0 100 100"><defs><linearGradient id="b" x1="0" y1="0" x2="1" y2="1"><stop offset="0" stop-color="#2a5cff"/><stop offset="1" stop-color="#0a1a55"/></linearGradient><radialGradient id="g" cx=".28" cy=".22" r=".85"><stop offset="0" stop-color="#40d6c6" stop-opacity=".5"/><stop offset=".55" stop-color="#40d6c6" stop-opacity="0"/></radialGradient><linearGradient id="r" x1="0" y1="0" x2="1" y2="1"><stop offset="0" stop-color="#7ef0e2"/><stop offset=".5" stop-color="#fff" stop-opacity=".15"/><stop offset="1" stop-color="#ffb432"/></linearGradient><linearGradient id="l" x1="0" y1="0" x2="1" y2="1"><stop offset="0" stop-color="#fff"/><stop offset="1" stop-color="#9fe9ff"/></linearGradient></defs><polygon points="22,0 78,0 100,22 100,78 78,100 22,100 0,78 0,22" fill="url(#b)"/><polygon points="22,0 78,0 100,22 100,78 78,100 22,100 0,78 0,22" fill="url(#g)"/><polygon points="22,0 78,0 100,22 100,78 78,100 22,100 0,78 0,22" fill="none" stroke="url(#r)" stroke-width="1.6"/><path d="M30 76 L50 25 L70 76" fill="none" stroke="url(#l)" stroke-width="9.5" stroke-linecap="round" stroke-linejoin="round"/><circle cx="50" cy="58.5" r="10" fill="#ffb432" opacity=".22"/><circle cx="50" cy="58.5" r="6" fill="#ffb432"/></svg>